<svg xmlns="http://www.w3.org/2000/svg" viewBox="0 0 240 240" role="img" aria-label="Self hosted server">
  <rect width="240" height="240" rx="34" fill="#fbf8ef"/>
  <path d="M61 72c0-9 7-16 16-16h82c9 0 16 7 16 16v96c0 9-7 16-16 16H77c-9 0-16-7-16-16V72Z" fill="#303346"/>
  <path d="M61 72c0-9 7-16 16-16h82c9 0 16 7 16 16v18H61V72Z" fill="#3d4058"/>
  <path d="M83 109h56M83 133h56M83 157h36" stroke="#f8f4ea" stroke-width="8" stroke-linecap="round" opacity=".78"/>
  <circle cx="153" cy="109" r="6" fill="#86af95"/>
  <circle cx="153" cy="133" r="6" fill="#86af95"/>
  <path d="M175 112c27 0 27 50 0 50" fill="none" stroke="#86af95" stroke-width="13" stroke-linecap="round"/>
  <path d="M175 133c43 0 43 72 0 72" fill="none" stroke="#303346" stroke-width="13" stroke-linecap="round" opacity=".95"/>
  <path d="M88 178l13 10-13 10" fill="none" stroke="#efc985" stroke-width="8" stroke-linecap="round" stroke-linejoin="round"/>
</svg>
